<?xml version="1.0" encoding="utf-8"?>
<!-- Generator: Adobe Illustrator 23.0.1, SVG Export Plug-In . SVG Version: 6.00 Build 0)  -->
<svg width="560px" height="560px" version="1.1" id="Layer_1" xmlns="http://www.w3.org/2000/svg" xmlns:xlink="http://www.w3.org/1999/xlink" x="0px" y="0px">
<g>
	<g>
		<path d="M243.6,6.3L205,61.1c-7,9.9,0.1,23.6,12.3,23.6l23.6,0l0.1,263c0,8.3,6.7,15,15,15s15-6.7,15-15l-0.1-263l23.6,0
			c12.2,0,19.2-13.8,12.2-23.6L268.1,6.3C262.3-2,249.7-2.2,243.6,6.3z"/>
	</g>
</g>
<g>
	<g>
		<path d="M352.2,81.5c-4.1,7.2-1.7,16.3,5.5,20.5c60.9,35.2,101.9,101.1,101.9,176.3c0,112.3-91.2,203.6-203.5,203.7
			c-112.3,0-203.6-91.2-203.7-203.5c0-75.3,40.9-141.2,101.7-176.4c7.2-4.2,9.6-13.3,5.5-20.5c-4.2-7.2-13.3-9.6-20.5-5.5
			c-70,40.6-116.7,116.3-116.7,202.4C22.5,407.6,127,512.1,256.1,512c129.1-0.1,233.6-104.6,233.5-233.7
			c0-86.2-46.8-161.8-116.9-202.3C365.6,71.9,356.4,74.3,352.2,81.5z"/>
	</g>
</g>
</svg>
