
<svg version="1.1" id="Capa_1" xmlns="http://www.w3.org/2000/svg" 
	 width="360px" height="360px"
	>
<g>
	<path d="M171.26,0.003C76.819,0.003,0,76.828,0,171.263c0,94.434,76.813,171.248,171.26,171.248
		c94.416,0,171.254-76.814,171.254-171.248C342.514,76.828,265.676,0.003,171.26,0.003z M183.741,234.646h-27.237v-26.697h27.237
		V234.646z M211.753,155.046c-1.447,3.591-3.237,6.653-5.381,9.193c-2.149,2.54-4.503,4.717-7.109,6.506
		c-2.594,1.798-5.056,3.588-7.368,5.377c-2.306,1.79-4.365,3.843-6.154,6.161c-1.796,2.306-2.931,5.206-3.387,8.659v6.593h-23.416
		v-7.806c0.357-4.979,1.303-9.128,2.87-12.479c1.562-3.351,3.378-6.224,5.462-8.59c2.083-2.362,4.272-4.422,6.593-6.155
		c2.294-1.741,4.438-3.474,6.413-5.191c1.958-1.748,3.555-3.651,4.768-5.738c1.213-2.072,1.754-4.69,1.651-7.809
		c0-5.317-1.303-9.248-3.909-11.788c-2.594-2.552-6.209-3.819-10.851-3.819c-3.104,0-5.797,0.604-8.046,1.816
		c-2.264,1.21-4.116,2.84-5.555,4.864c-1.45,2.027-2.513,4.396-3.215,7.101c-0.688,2.729-1.039,5.632-1.039,8.772h-25.493
		c0.129-6.257,1.18-11.971,3.209-17.186c2.036-5.206,4.852-9.701,8.503-13.514c3.642-3.825,8.031-6.801,13.184-8.929
		c5.146-2.153,10.896-3.215,17.261-3.215c8.212,0,15.057,1.126,20.558,3.387c5.482,2.258,9.896,5.068,13.258,8.406
		c3.363,3.363,5.753,6.98,7.206,10.842c1.436,3.885,2.156,7.5,2.156,10.848C213.915,146.895,213.194,151.468,211.753,155.046z"/>
</g>

</svg>
