<?xml version="1.0" encoding="UTF-8"?><!DOCTYPE svg PUBLIC "-//W3C//DTD SVG 1.1//EN" "http://www.w3.org/Graphics/SVG/1.1/DTD/svg11.dtd"><svg xmlns="http://www.w3.org/2000/svg" xmlns:xlink="http://www.w3.org/1999/xlink"><symbol id="icon-arrow-down" viewBox="0 0 451 380">
    <path d="M225.923 354.706c-8.098 0-16.195-3.092-22.369-9.263L9.27 151.157c-12.359-12.359-12.359-32.397 0-44.751 12.354-12.354 32.388-12.354 44.748 0l171.905 171.915 171.906-171.909c12.359-12.354 32.391-12.354 44.744 0 12.365 12.354 12.365 32.392 0 44.751L248.292 345.449c-6.177 6.172-14.274 9.257-22.369 9.257z"/>
</symbol><symbol id="icon-bell" viewBox="0 0 50 50">
    <path d="M46.878 41.834H.956l.005-1.005c.021-4.065 2.87-7.548 6.759-8.437V20.697C7.72 11.766 14.985 4.5 23.916 4.5c8.932 0 16.198 7.266 16.198 16.197v11.695c3.889.89 6.737 4.372 6.759 8.437l.005 1.005zm-43.836-2h41.75a6.72 6.72 0 0 0-5.8-5.61l-.878-.107v-13.42c0-7.828-6.369-14.197-14.198-14.197-7.828 0-14.196 6.369-14.196 14.197v13.419l-.878.107a6.718 6.718 0 0 0-5.8 5.611z"/>
    <path d="M21.125 5.988h-2V4.792A4.797 4.797 0 0 1 23.917 0a4.796 4.796 0 0 1 4.791 4.792v1.176h-2V4.792A2.795 2.795 0 0 0 23.917 2a2.796 2.796 0 0 0-2.792 2.792v1.196z"/>
    <path d="M23.903 47.834c-3.941 0-7.375-2.799-8.164-6.656l1.959-.4a6.353 6.353 0 0 0 6.205 5.057 6.327 6.327 0 0 0 6.228-5.18l1.967.361a8.325 8.325 0 0 1-8.195 6.818z"/>
    <path d="M8.72 32.231h3.682v2H8.72z"/>
    <path d="M18.167 32.231h20.947v2H18.167z"/>
</symbol><symbol id="icon-close" viewBox="0 0 50 50">
    <path d="M28.228 23.986L47.092 5.122a2.998 2.998 0 0 0 0-4.242 2.998 2.998 0 0 0-4.242 0L23.986 19.744 5.121.88a2.998 2.998 0 0 0-4.242 0 2.998 2.998 0 0 0 0 4.242l18.865 18.864L.879 42.85a2.998 2.998 0 1 0 4.242 4.241l18.865-18.864L42.85 47.091c.586.586 1.354.879 2.121.879s1.535-.293 2.121-.879a2.998 2.998 0 0 0 0-4.242L28.228 23.986z"/>
</symbol><symbol id="icon-logout" viewBox="0 0 560 560">
    <path d="M243.6 6.3L205 61.1c-7 9.9.1 23.6 12.3 23.6h23.6l.1 263c0 8.3 6.7 15 15 15s15-6.7 15-15l-.1-263h23.6c12.2 0 19.2-13.8 12.2-23.6L268.1 6.3c-5.8-8.3-18.4-8.5-24.5 0z"/>
    <path d="M352.2 81.5c-4.1 7.2-1.7 16.3 5.5 20.5 60.9 35.2 101.9 101.1 101.9 176.3 0 112.3-91.2 203.6-203.5 203.7-112.3 0-203.6-91.2-203.7-203.5 0-75.3 40.9-141.2 101.7-176.4 7.2-4.2 9.6-13.3 5.5-20.5-4.2-7.2-13.3-9.6-20.5-5.5-70 40.6-116.7 116.3-116.7 202.4C22.5 407.6 127 512.1 256.1 512c129.1-.1 233.6-104.6 233.5-233.7 0-86.2-46.8-161.8-116.9-202.3-7.1-4.1-16.3-1.7-20.5 5.5z"/>
</symbol><symbol id="icon-n-icon" viewBox="0 0 35 35">
    <style>
        .st0{fill:#ff0057}
    </style>
    <path class="st0" d="M18.2 20.1l-2.1 3.6-4.1-3.5-4.8 12.3s-.8 2.3-3.4 2.3c0 0-3.4 0-3.7-3.7V12.5s-.1-3 3.2-3.6c0 0 2-.5 4.4 2l10.5 9.2z" id="XMLID_4_"/>
    <circle class="st0" cx="3.7" cy="3.7" r="3.7"/>
    <path class="st0" d="M16.1 23.7l2.1-3.6 4.1 3.5 4.9-12.3S28 9 30.6 9c0 0 3.4 0 3.7 3.7v18.6s.1 3-3.2 3.6c0 0-2 .5-4.4-2l-10.6-9.2z" id="XMLID_3_"/>
    <circle class="st0" cx="30.6" cy="3.7" r="3.7"/>
</symbol><symbol id="icon-plus" viewBox="0 0 588 588">
    <path d="M86.541 501.98c26.971 26.971 58.385 48.148 93.368 62.945 36.23 15.324 74.704 23.094 114.352 23.094 39.648 0 78.121-7.77 114.352-23.094 34.982-14.797 66.396-35.975 93.369-62.945 26.971-26.973 48.148-58.387 62.945-93.369 15.324-36.23 23.094-74.703 23.094-114.352 0-39.647-7.77-78.121-23.094-114.352-14.797-34.983-35.975-66.397-62.945-93.368-26.973-26.972-58.387-48.15-93.369-62.947C372.381 8.27 333.908.5 294.26.5c-39.647 0-78.121 7.77-114.352 23.094-34.983 14.796-66.396 35.975-93.368 62.947-26.972 26.971-48.15 58.385-62.947 93.368C8.27 216.139.5 254.612.5 294.26c0 39.648 7.77 78.121 23.094 114.352 14.797 34.982 35.975 66.396 62.947 93.368zM63.049 196.597c12.637-29.877 30.732-56.714 53.783-79.765 23.051-23.051 49.888-41.146 79.765-53.783 30.92-13.078 63.779-19.709 97.663-19.709 33.883 0 66.742 6.631 97.664 19.71 29.875 12.636 56.713 30.732 79.764 53.783 23.051 23.051 41.146 49.888 53.783 79.765 13.078 30.92 19.709 63.779 19.709 97.662s-6.631 66.742-19.709 97.664c-12.637 29.875-30.732 56.713-53.783 79.764s-49.889 41.146-79.764 53.783c-30.922 13.078-63.781 19.709-97.664 19.709s-66.742-6.631-97.663-19.709c-29.877-12.637-56.714-30.732-79.765-53.783s-41.146-49.889-53.783-79.766c-13.078-30.92-19.709-63.779-19.709-97.662 0-33.884 6.631-66.742 19.709-97.663z"/>
    <path d="M294.26 588.52c-39.716 0-78.255-7.783-114.546-23.133-35.043-14.822-66.51-36.036-93.526-63.053-27.017-27.018-48.231-58.485-63.054-93.528C7.783 372.514 0 333.975 0 294.26s7.783-78.253 23.133-114.546c14.822-35.043 36.037-66.51 63.054-93.526 27.017-27.018 58.483-48.232 93.526-63.054C216.006 7.783 254.545 0 294.26 0s78.254 7.783 114.546 23.133c35.043 14.822 66.511 36.037 93.528 63.054 27.016 27.016 48.229 58.482 63.053 93.526 15.35 36.292 23.133 74.831 23.133 114.546s-7.783 78.255-23.133 114.546c-14.822 35.043-36.036 66.511-63.053 93.528-27.018 27.017-58.485 48.23-93.528 63.052-36.291 15.351-74.83 23.135-114.546 23.135zm0-587.52c-39.58 0-77.988 7.757-114.157 23.054-34.924 14.771-66.284 35.914-93.209 62.84-26.925 26.925-48.068 58.285-62.84 93.209C8.757 216.272 1 254.68 1 294.26s7.757 77.988 23.054 114.157c14.772 34.923 35.914 66.283 62.84 93.21 26.925 26.925 58.285 48.066 93.209 62.838 36.167 15.298 74.576 23.055 114.157 23.055s77.989-7.757 114.157-23.055c34.923-14.771 66.283-35.913 93.21-62.838 26.925-26.927 48.066-58.287 62.838-93.21 15.298-36.168 23.055-74.576 23.055-114.157s-7.757-77.989-23.055-114.157c-14.771-34.925-35.914-66.285-62.838-93.209-26.927-26.926-58.287-48.068-93.21-62.84C372.248 8.757 333.84 1 294.26 1zm0 544.68c-33.952 0-66.875-6.645-97.857-19.748-29.936-12.662-56.826-30.794-79.923-53.891-23.096-23.096-41.227-49.986-53.89-79.925-13.106-30.981-19.75-63.905-19.75-97.856 0-33.95 6.645-66.874 19.749-97.857 12.662-29.936 30.793-56.826 53.89-79.923s49.987-41.228 79.923-53.89c30.983-13.104 63.907-19.749 97.857-19.749 33.951 0 66.875 6.645 97.858 19.75 29.937 12.662 56.826 30.793 79.923 53.89 23.098 23.098 41.229 49.988 53.891 79.923 13.104 30.982 19.748 63.906 19.748 97.857s-6.645 66.875-19.748 97.858c-12.663 29.937-30.794 56.827-53.891 79.923-23.096 23.097-49.986 41.228-79.923 53.89-30.982 13.103-63.906 19.748-97.857 19.748zm0-501.84c-33.816 0-66.609 6.618-97.468 19.67-29.817 12.612-56.601 30.671-79.606 53.676-23.005 23.005-41.065 49.789-53.676 79.606-13.052 30.859-19.67 63.652-19.67 97.468s6.618 66.609 19.67 97.468c12.613 29.818 30.672 56.603 53.676 79.606 23.006 23.006 49.789 41.064 79.606 53.676 30.858 13.052 63.651 19.67 97.468 19.67 33.816 0 66.609-6.618 97.47-19.67 29.816-12.612 56.6-30.671 79.604-53.676s41.063-49.788 53.676-79.604c13.052-30.86 19.67-63.653 19.67-97.47s-6.618-66.609-19.67-97.467c-12.611-29.816-30.67-56.6-53.676-79.606-23.005-23.005-49.788-41.064-79.604-53.676-30.861-13.053-63.654-19.671-97.47-19.671z"/>
    <g>
        <path d="M160.87 315.68h111.358v111.359c0 11.83 9.59 21.42 21.42 21.42 11.831 0 21.42-9.59 21.42-21.42V315.68h111.357c11.83 0 21.42-9.59 21.42-21.42 0-11.83-9.59-21.42-21.42-21.42H315.068V161.481c0-11.83-9.59-21.42-21.42-21.42-11.83 0-21.42 9.59-21.42 21.42V272.84H160.87c-11.83 0-21.42 9.59-21.42 21.42 0 11.83 9.59 21.42 21.42 21.42z"/>
        <path d="M293.648 448.959c-12.087 0-21.92-9.833-21.92-21.92V316.18H160.87c-12.087 0-21.92-9.833-21.92-21.92s9.833-21.92 21.92-21.92h110.858V161.481c0-12.087 9.833-21.92 21.92-21.92 12.087 0 21.92 9.833 21.92 21.92V272.34h110.857c12.087 0 21.92 9.833 21.92 21.92s-9.833 21.92-21.92 21.92H315.568v110.859c0 12.087-9.833 21.92-21.92 21.92zM160.87 273.34c-11.535 0-20.92 9.385-20.92 20.92s9.385 20.92 20.92 20.92h111.858v111.859c0 11.535 9.385 20.92 20.92 20.92 11.536 0 20.92-9.385 20.92-20.92V315.18h111.857c11.535 0 20.92-9.385 20.92-20.92s-9.385-20.92-20.92-20.92H314.568V161.481c0-11.535-9.385-20.92-20.92-20.92-11.535 0-20.92 9.385-20.92 20.92V273.34H160.87z"/>
    </g>
</symbol><symbol id="icon-question" viewBox="0 0 360 360">
    <path d="M171.26.003C76.819.003 0 76.828 0 171.263c0 94.434 76.813 171.248 171.26 171.248 94.416 0 171.254-76.814 171.254-171.248 0-94.435-76.838-171.26-171.254-171.26zm12.481 234.643h-27.237v-26.697h27.237v26.697zm28.012-79.6c-1.447 3.591-3.237 6.653-5.381 9.193-2.149 2.54-4.503 4.717-7.109 6.506a174.424 174.424 0 0 0-7.368 5.377 34.346 34.346 0 0 0-6.154 6.161c-1.796 2.306-2.931 5.206-3.387 8.659v6.593h-23.416v-7.806c.357-4.979 1.303-9.128 2.87-12.479 1.562-3.351 3.378-6.224 5.462-8.59 2.083-2.362 4.272-4.422 6.593-6.155a124.606 124.606 0 0 0 6.413-5.191c1.958-1.748 3.555-3.651 4.768-5.738 1.213-2.072 1.754-4.69 1.651-7.809 0-5.317-1.303-9.248-3.909-11.788-2.594-2.552-6.209-3.819-10.851-3.819-3.104 0-5.797.604-8.046 1.816-2.264 1.21-4.116 2.84-5.555 4.864-1.45 2.027-2.513 4.396-3.215 7.101-.688 2.729-1.039 5.632-1.039 8.772h-25.493c.129-6.257 1.18-11.971 3.209-17.186 2.036-5.206 4.852-9.701 8.503-13.514 3.642-3.825 8.031-6.801 13.184-8.929 5.146-2.153 10.896-3.215 17.261-3.215 8.212 0 15.057 1.126 20.558 3.387 5.482 2.258 9.896 5.068 13.258 8.406 3.363 3.363 5.753 6.98 7.206 10.842 1.436 3.885 2.156 7.5 2.156 10.848-.007 5.543-.728 10.116-2.169 13.694z"/>
</symbol><symbol id="icon-settings" viewBox="0 0 460 460">
    <path d="M416.8 269.44l-45.013-35.307c.853-6.827 1.493-13.76 1.493-20.8s-.64-13.973-1.493-20.8l45.12-35.307c4.053-3.2 5.227-8.96 2.56-13.653L376.8 69.653c-2.667-4.587-8.213-6.507-13.013-4.587l-53.12 21.44c-10.987-8.427-23.04-15.573-36.053-21.013l-8-56.533C265.653 3.947 261.28 0 255.947 0h-85.333c-5.333 0-9.707 3.947-10.56 8.96l-8 56.533c-13.013 5.44-25.067 12.48-36.053 21.013l-53.12-21.44c-4.8-1.813-10.347 0-13.013 4.587L7.2 143.573c-2.667 4.587-1.493 10.347 2.56 13.653l45.013 35.307c-.853 6.827-1.493 13.76-1.493 20.8s.64 13.973 1.493 20.8L9.76 269.44c-4.053 3.2-5.227 8.96-2.56 13.653l42.667 73.92c2.667 4.587 8.213 6.507 13.013 4.587L116 340.16c10.987 8.427 23.04 15.573 36.053 21.013l8 56.533c.853 5.013 5.227 8.96 10.56 8.96h85.333c5.333 0 9.707-3.947 10.56-8.96l8-56.533c13.013-5.44 25.067-12.48 36.053-21.013l53.12 21.44c4.8 1.813 10.347 0 13.013-4.587l42.667-73.92c2.668-4.586 1.494-10.346-2.559-13.653zM213.28 288c-41.28 0-74.667-33.387-74.667-74.667S172 138.667 213.28 138.667s74.667 33.387 74.667 74.667S254.56 288 213.28 288z"/>
</symbol><symbol id="icon-upload" viewBox="0 0 500 500">
    <path d="M395.5 135.8c-5.2-30.9-20.5-59.1-43.9-80.5-26-23.8-59.8-36.9-95-36.9-27.2 0-53.7 7.8-76.4 22.5-18.9 12.2-34.6 28.7-45.7 48.1-4.8-.9-9.8-1.4-14.8-1.4-42.5 0-77.1 34.6-77.1 77.1 0 5.5.6 10.8 1.6 16C16.7 200.7 0 232.9 0 267.2c0 27.7 10.3 54.6 29.1 75.9 19.3 21.8 44.8 34.7 72 36.2h86.8c7.5 0 13.5-6 13.5-13.5s-6-13.5-13.5-13.5h-85.6C61.4 349.8 27 310.9 27 267.1c0-28.3 15.2-54.7 39.7-69 5.7-3.3 8.1-10.2 5.9-16.4-2-5.4-3-11.1-3-17.2 0-27.6 22.5-50.1 50.1-50.1 5.9 0 11.7 1 17.1 3 6.6 2.4 13.9-.6 16.9-6.9 18.7-39.7 59.1-65.3 103-65.3 59 0 107.7 44.2 113.3 102.8.6 6.1 5.2 11 11.2 12 44.5 7.6 78.1 48.7 78.1 95.6 0 49.7-39.1 92.9-87.3 96.6h-73.7c-7.5 0-13.5 6-13.5 13.5s6 13.5 13.5 13.5h75.2c30.5-2.2 59-16.2 80.2-39.6 21.1-23.2 32.6-53 32.6-84-.1-56.1-38.4-106-90.8-119.8z"/>
    <path d="M324.2 280c5.3-5.3 5.3-13.8 0-19.1l-71.5-71.5c-2.5-2.5-6-4-9.5-4s-7 1.4-9.5 4l-71.5 71.5c-5.3 5.3-5.3 13.8 0 19.1 2.6 2.6 6.1 4 9.5 4s6.9-1.3 9.5-4l48.5-48.5v222.9c0 7.5 6 13.5 13.5 13.5s13.5-6 13.5-13.5V231.5l48.5 48.5c5.2 5.3 13.7 5.3 19 0z"/>
</symbol></svg>