<?xml version="1.0" encoding="UTF-8"?><!DOCTYPE svg PUBLIC "-//W3C//DTD SVG 1.1//EN" "http://www.w3.org/Graphics/SVG/1.1/DTD/svg11.dtd"><svg xmlns="http://www.w3.org/2000/svg" xmlns:xlink="http://www.w3.org/1999/xlink"><symbol id="icon-arrow-down" viewBox="0 0 451 380">
    <path d="M225.923 354.706c-8.098 0-16.195-3.092-22.369-9.263L9.27 151.157c-12.359-12.359-12.359-32.397 0-44.751 12.354-12.354 32.388-12.354 44.748 0l171.905 171.915 171.906-171.909c12.359-12.354 32.391-12.354 44.744 0 12.365 12.354 12.365 32.392 0 44.751L248.292 345.449c-6.177 6.172-14.274 9.257-22.369 9.257z"/>
</symbol><symbol id="icon-bell" viewBox="0 0 50 50">
    <path d="M46.878 41.834H.956l.005-1.005c.021-4.065 2.87-7.548 6.759-8.437V20.697C7.72 11.766 14.985 4.5 23.916 4.5c8.932 0 16.198 7.266 16.198 16.197v11.695c3.889.89 6.737 4.372 6.759 8.437l.005 1.005zm-43.836-2h41.75a6.72 6.72 0 0 0-5.8-5.61l-.878-.107v-13.42c0-7.828-6.369-14.197-14.198-14.197-7.828 0-14.196 6.369-14.196 14.197v13.419l-.878.107a6.718 6.718 0 0 0-5.8 5.611z"/>
    <path d="M21.125 5.988h-2V4.792A4.797 4.797 0 0 1 23.917 0a4.796 4.796 0 0 1 4.791 4.792v1.176h-2V4.792A2.795 2.795 0 0 0 23.917 2a2.796 2.796 0 0 0-2.792 2.792v1.196z"/>
    <path d="M23.903 47.834c-3.941 0-7.375-2.799-8.164-6.656l1.959-.4a6.353 6.353 0 0 0 6.205 5.057 6.327 6.327 0 0 0 6.228-5.18l1.967.361a8.325 8.325 0 0 1-8.195 6.818z"/>
    <path d="M8.72 32.231h3.682v2H8.72z"/>
    <path d="M18.167 32.231h20.947v2H18.167z"/>
</symbol><symbol id="icon-facebook" viewBox="0 0 10 19">
    <title>
        facebook
    </title>
    <path d="M9.766.157v2.946H8.014c-.64 0-1.071.134-1.295.402-.223.268-.335.67-.335 1.205v2.11h3.27l-.435 3.303H6.384v8.471H2.97v-8.47H.123V6.82H2.97V4.387c0-1.384.387-2.457 1.161-3.22C4.904.404 5.934.023 7.222.023c1.093 0 1.941.045 2.544.134z" fill-rule="evenodd"/>
</symbol><symbol id="icon-logout" viewBox="0 0 560 560">
    <path d="M243.6 6.3L205 61.1c-7 9.9.1 23.6 12.3 23.6h23.6l.1 263c0 8.3 6.7 15 15 15s15-6.7 15-15l-.1-263h23.6c12.2 0 19.2-13.8 12.2-23.6L268.1 6.3c-5.8-8.3-18.4-8.5-24.5 0z"/>
    <path d="M352.2 81.5c-4.1 7.2-1.7 16.3 5.5 20.5 60.9 35.2 101.9 101.1 101.9 176.3 0 112.3-91.2 203.6-203.5 203.7-112.3 0-203.6-91.2-203.7-203.5 0-75.3 40.9-141.2 101.7-176.4 7.2-4.2 9.6-13.3 5.5-20.5-4.2-7.2-13.3-9.6-20.5-5.5-70 40.6-116.7 116.3-116.7 202.4C22.5 407.6 127 512.1 256.1 512c129.1-.1 233.6-104.6 233.5-233.7 0-86.2-46.8-161.8-116.9-202.3-7.1-4.1-16.3-1.7-20.5 5.5z"/>
</symbol><symbol id="icon-n-icon" viewBox="0 0 35 35">
    <style>
        .st0{fill:#ff0057}
    </style>
    <path class="st0" d="M18.2 20.1l-2.1 3.6-4.1-3.5-4.8 12.3s-.8 2.3-3.4 2.3c0 0-3.4 0-3.7-3.7V12.5s-.1-3 3.2-3.6c0 0 2-.5 4.4 2l10.5 9.2z" id="XMLID_4_"/>
    <circle class="st0" cx="3.7" cy="3.7" r="3.7"/>
    <path class="st0" d="M16.1 23.7l2.1-3.6 4.1 3.5 4.9-12.3S28 9 30.6 9c0 0 3.4 0 3.7 3.7v18.6s.1 3-3.2 3.6c0 0-2 .5-4.4-2l-10.6-9.2z" id="XMLID_3_"/>
    <circle class="st0" cx="30.6" cy="3.7" r="3.7"/>
</symbol><symbol id="icon-question" viewBox="0 0 360 360">
    <path d="M171.26.003C76.819.003 0 76.828 0 171.263c0 94.434 76.813 171.248 171.26 171.248 94.416 0 171.254-76.814 171.254-171.248 0-94.435-76.838-171.26-171.254-171.26zm12.481 234.643h-27.237v-26.697h27.237v26.697zm28.012-79.6c-1.447 3.591-3.237 6.653-5.381 9.193-2.149 2.54-4.503 4.717-7.109 6.506a174.424 174.424 0 0 0-7.368 5.377 34.346 34.346 0 0 0-6.154 6.161c-1.796 2.306-2.931 5.206-3.387 8.659v6.593h-23.416v-7.806c.357-4.979 1.303-9.128 2.87-12.479 1.562-3.351 3.378-6.224 5.462-8.59 2.083-2.362 4.272-4.422 6.593-6.155a124.606 124.606 0 0 0 6.413-5.191c1.958-1.748 3.555-3.651 4.768-5.738 1.213-2.072 1.754-4.69 1.651-7.809 0-5.317-1.303-9.248-3.909-11.788-2.594-2.552-6.209-3.819-10.851-3.819-3.104 0-5.797.604-8.046 1.816-2.264 1.21-4.116 2.84-5.555 4.864-1.45 2.027-2.513 4.396-3.215 7.101-.688 2.729-1.039 5.632-1.039 8.772h-25.493c.129-6.257 1.18-11.971 3.209-17.186 2.036-5.206 4.852-9.701 8.503-13.514 3.642-3.825 8.031-6.801 13.184-8.929 5.146-2.153 10.896-3.215 17.261-3.215 8.212 0 15.057 1.126 20.558 3.387 5.482 2.258 9.896 5.068 13.258 8.406 3.363 3.363 5.753 6.98 7.206 10.842 1.436 3.885 2.156 7.5 2.156 10.848-.007 5.543-.728 10.116-2.169 13.694z"/>
</symbol><symbol id="icon-settings" viewBox="0 0 460 460">
    <path d="M416.8 269.44l-45.013-35.307c.853-6.827 1.493-13.76 1.493-20.8s-.64-13.973-1.493-20.8l45.12-35.307c4.053-3.2 5.227-8.96 2.56-13.653L376.8 69.653c-2.667-4.587-8.213-6.507-13.013-4.587l-53.12 21.44c-10.987-8.427-23.04-15.573-36.053-21.013l-8-56.533C265.653 3.947 261.28 0 255.947 0h-85.333c-5.333 0-9.707 3.947-10.56 8.96l-8 56.533c-13.013 5.44-25.067 12.48-36.053 21.013l-53.12-21.44c-4.8-1.813-10.347 0-13.013 4.587L7.2 143.573c-2.667 4.587-1.493 10.347 2.56 13.653l45.013 35.307c-.853 6.827-1.493 13.76-1.493 20.8s.64 13.973 1.493 20.8L9.76 269.44c-4.053 3.2-5.227 8.96-2.56 13.653l42.667 73.92c2.667 4.587 8.213 6.507 13.013 4.587L116 340.16c10.987 8.427 23.04 15.573 36.053 21.013l8 56.533c.853 5.013 5.227 8.96 10.56 8.96h85.333c5.333 0 9.707-3.947 10.56-8.96l8-56.533c13.013-5.44 25.067-12.48 36.053-21.013l53.12 21.44c4.8 1.813 10.347 0 13.013-4.587l42.667-73.92c2.668-4.586 1.494-10.346-2.559-13.653zM213.28 288c-41.28 0-74.667-33.387-74.667-74.667S172 138.667 213.28 138.667s74.667 33.387 74.667 74.667S254.56 288 213.28 288z"/>
</symbol></svg>